<svg width="428" height="428" viewBox="0 0 428 428" fill="none" xmlns="http://www.w3.org/2000/svg">
<g clip-path="url(#clip0_178_19)">
<rect width="428" height="428" fill="#1D1B20"/>
<path d="M240.797 268.717C238.045 273.945 239.765 289.008 248.019 295.199C257.087 302 278.5 319.5 281.5 332C283.997 342.405 235.867 411.5 201.59 440C159.226 440 81.9 438.2 111.5 431C148.5 422 238.881 338.567 240.797 329C243.5 315.5 209.883 297.791 208.5 283.5C206.862 266.571 217.354 257.784 224.5 251.177C240.169 236.691 253.944 243.259 266.935 235.7C272.127 232.68 163.969 217.816 144.498 217.816C136.932 217.816 136.932 207.499 142.091 204.059C150.345 191.678 309.821 186.385 298.232 177.577C289.634 171.043 146.906 162.445 81.9044 159.349C75.0258 159.349 75.7137 148 81.9044 148C108.467 148 290.666 156.942 346.725 174.826C352.572 177.577 349.477 186.519 346.038 187.895C342.697 189.232 324.37 188.927 313.709 190.302C279.316 191.678 202.277 205.435 198.15 205.435C194.023 205.435 188.521 206.811 191.616 209.906C194.092 212.382 237.128 218.275 258.337 220.912C273.814 223.778 305.523 230.748 308.55 235.7C312.333 241.891 310.159 245.525 304.423 246.706C292.729 249.113 271.75 249.801 263.152 251.177C254.554 252.553 244.236 262.183 240.797 268.717Z" fill="#D9D9D9" stroke="#EAEAEA" stroke-width="0.687847"/>
</g>
<defs>
<clipPath id="clip0_178_19">
<rect width="428" height="428" fill="white"/>
</clipPath>
</defs>
</svg>
